HIERARCHY
ROOT Model_Hips
{
	OFFSET 0.000000 96.915077 0.000000
	CHANNELS 6 Xposition Yposition Zposition Xrotation Yrotation Zrotation
	JOINT Model_Spine
	{
		OFFSET 0.000000 11.137703 -1.289900
		CHANNELS 3 Xrotation Yrotation Zrotation
		JOINT Model_Spine1
		{
			OFFSET 0.000000 12.993942 -1.504922
			CHANNELS 3 Xrotation Yrotation Zrotation
			JOINT Model_Spine2
			{
				OFFSET 0.000000 14.850220 -1.719911
				CHANNELS 3 Xrotation Yrotation Zrotation
				JOINT Model_Neck
				{
					OFFSET 0.000000 16.706543 -1.934903
					CHANNELS 3 Xrotation Yrotation Zrotation
					JOINT Model_Head
					{
						OFFSET 0.000000 10.471298 2.002100
						CHANNELS 3 Xrotation Yrotation Zrotation
						JOINT Model_HeadTop_End
						{
							OFFSET 0.000000 20.842606 3.985100
							CHANNELS 3 Xrotation Yrotation Zrotation
							End Site
							{
								OFFSET 0.000000 21.220154 0.000000
							}
						}
					}
				}
				JOINT Model_LeftShoulder
				{
					OFFSET 7.008500 14.768600 -1.919946
					CHANNELS 3 Xrotation Yrotation Zrotation
					JOINT Model_LeftArm
					{
						OFFSET 14.126271 -3.718048 0.029937
						CHANNELS 3 Xrotation Yrotation Zrotation
						JOINT Model_LeftForeArm
						{
							OFFSET 28.282801 0.000000 0.000000
							CHANNELS 3 Xrotation Yrotation Zrotation
							JOINT Model_LeftHand
							{
								OFFSET 26.204689 0.000000 0.000000
								CHANNELS 3 Xrotation Yrotation Zrotation
								End Site
								{
									OFFSET 26.204704 0.000000 0.000000
								}
							}
						}
					}
				}
				JOINT Model_RightShoulder
				{
					OFFSET -7.008500 14.768555 -1.949840
					CHANNELS 3 Xrotation Yrotation Zrotation
					JOINT Model_RightArm
					{
						OFFSET -14.126281 -3.718018 -0.029932
						CHANNELS 3 Xrotation Yrotation Zrotation
						JOINT Model_RightForeArm
						{
							OFFSET -28.283798 0.000000 -0.000001
							CHANNELS 3 Xrotation Yrotation Zrotation
							JOINT Model_RightHand
							{
								OFFSET -26.204193 0.000000 -0.000001
								CHANNELS 3 Xrotation Yrotation Zrotation
								End Site
								{
									OFFSET -26.204208 0.000000 -0.000001
								}
							}
						}
					}
				}
			}
		}
	}
	JOINT Model_LeftUpLeg
	{
		OFFSET 8.327700 -6.193199 -0.402800
		CHANNELS 3 Xrotation Yrotation Zrotation
		JOINT Model_LeftLeg
		{
			OFFSET 0.735802 -42.108742 -0.610721
			CHANNELS 3 Xrotation Yrotation Zrotation
			JOINT Model_LeftFoot
			{
				OFFSET -0.735806 -36.833748 -0.172876
				CHANNELS 3 Xrotation Yrotation Zrotation
				JOINT Model_LeftToeBase
				{
					OFFSET -0.565857 -11.977769 16.297714
					CHANNELS 3 Xrotation Yrotation Zrotation
					JOINT Model_LeftToe_End
					{
						OFFSET -0.111712 -0.312793 7.857784
						CHANNELS 3 Xrotation Yrotation Zrotation
						End Site
						{
							OFFSET -0.111712 -0.312793 7.857784
						}
					}
				}
			}
		}
	}
	JOINT Model_RightUpLeg
	{
		OFFSET -8.327700 -6.193199 -0.516500
		CHANNELS 3 Xrotation Yrotation Zrotation
		JOINT Model_RightLeg
		{
			OFFSET -0.735785 -42.108738 -0.434061
			CHANNELS 3 Xrotation Yrotation Zrotation
			JOINT Model_RightFoot
			{
				OFFSET 0.735776 -36.833748 -0.021630
				CHANNELS 3 Xrotation Yrotation Zrotation
				JOINT Model_RightToeBase
				{
					OFFSET 0.565817 -11.977745 15.903093
					CHANNELS 3 Xrotation Yrotation Zrotation
					JOINT Model_RightToe_End
					{
						OFFSET 0.111702 -0.312791 7.811342
						CHANNELS 3 Xrotation Yrotation Zrotation
						End Site
						{
							OFFSET 0.111702 -0.312791 7.811342
						}
					}
				}
			}
		}
	}
}
MOTION
Frames: 7
Frame Time: 0.016667
-28.233362 76.964722 -5.787908 29.071006 -54.584669 28.339227 5.660527 -3.402672 1.785776 11.460107 -8.440691 3.575274 11.460117 -8.440727 3.575296 -10.922893 0.295308 -5.713733 -10.922881 0.295303 -5.713742 -0.000001 -0.000000 0.000001 -0.272505 5.582191 1.459520 -107.577248 -40.323562 -101.581046 1.197836 -77.611562 1.169717 -0.000000 -0.000004 0.000001 0.547196 3.131329 -8.854924 66.768398 4.358390 60.107441 0.104983 70.186232 -0.098541 -0.000003 0.000002 -0.000000 12.162341 -1.185680 11.523305 35.607484 4.089428 -0.923972 -3.262506 34.554463 -25.725139 -13.889328 17.895717 -18.199408 -0.000001 -0.000000 0.000000 -75.155153 2.539538 -10.273732 88.070235 9.414071 2.967673 -36.436819 -33.650761 -3.802884 0.428013 -1.223966 1.177924 -0.000000 0.000000 0.000000 
-32.468304 77.353729 -5.017992 34.463167 -56.410314 32.861990 5.244434 -3.282547 2.182532 10.628670 -8.024508 4.159968 10.628682 -8.024519 4.159978 -10.398815 0.413774 -5.799433 -10.398821 0.413774 -5.799437 -0.000000 0.000000 -0.000001 -0.244373 5.342540 1.151132 -105.738411 -41.881641 -102.045813 0.939233 -73.208700 0.898978 0.000002 -0.000001 -0.000001 0.698356 4.138413 -8.518550 64.859347 2.751392 59.116892 0.183516 75.009766 -0.177033 -0.000000 0.000000 -0.000001 13.179599 -11.731519 8.379902 34.666932 3.315927 -0.781078 11.882916 42.640130 -36.320781 -17.426751 23.222865 -23.176302 0.000001 -0.000001 -0.000002 -72.253423 1.642267 -11.050578 85.702632 10.433939 3.032806 -37.697849 -33.549794 -0.830750 0.409107 0.391012 -0.106713 0.000000 0.000000 0.000000 
-36.825840 77.672653 -4.567482 38.908780 -57.877165 36.764651 4.961695 -3.135157 2.498349 10.056593 -7.552869 4.577645 10.056578 -7.552845 4.577616 -9.326884 0.387096 -5.566479 -9.326879 0.387087 -5.566480 0.000000 0.000000 0.000000 -0.097158 4.351914 0.287301 -102.566027 -44.070122 -102.148286 0.749818 -67.812481 0.694106 0.000002 0.000000 -0.000000 0.876449 5.393952 -7.098188 60.978160 0.710707 57.942243 0.311168 78.883603 -0.305063 0.000002 0.000001 -0.000000 13.094973 -9.146615 8.973504 32.081603 1.607634 -0.647920 20.112161 34.561119 -36.985157 -21.823421 32.612955 -29.092067 -0.000001 -0.000001 -0.000001 -68.762602 0.019613 -11.406500 83.510490 10.892465 3.063518 -39.657861 -32.979534 -0.021019 -0.258420 2.716684 -2.118457 -0.000000 0.000000 -0.000000 
-41.107204 77.971802 -4.422219 42.201659 -59.349399 39.754566 4.859027 -2.970210 2.712274 9.839533 -7.044649 4.814702 9.839533 -7.044623 4.814686 -8.129545 0.234245 -4.977425 -8.129578 0.234254 -4.977435 0.000000 -0.000001 0.000000 0.087832 2.964648 -0.750354 -97.949380 -46.726274 -101.433077 0.627624 -61.769205 0.552774 0.000000 -0.000001 -0.000001 1.008394 6.812878 -4.519128 55.475889 -1.341769 56.073859 0.475867 81.628820 -0.470533 0.000002 -0.000001 0.000001 12.874823 -2.493247 10.294437 28.449369 0.031964 -0.548620 25.573388 22.698032 -30.414303 -21.486177 43.910012 -38.590330 -0.000001 -0.000001 0.000001 -65.172825 -2.137821 -11.270159 82.232520 10.698365 3.067879 -42.074730 -31.588262 -1.571241 -1.087087 5.228663 -4.357676 0.000000 -0.000000 0.000000 
-45.099628 78.321129 -4.575054 43.479833 -61.153293 41.084011 5.036779 -2.815911 2.727181 10.183934 -6.586687 4.791493 10.183940 -6.586693 4.791489 -7.149777 -0.100448 -3.829420 -7.149772 -0.100466 -3.829431 0.000000 0.000000 -0.000000 0.223457 1.575972 -1.391767 -92.105415 -49.721455 -99.800450 0.551877 -55.260650 0.453369 0.000001 0.000001 0.000004 1.000972 8.081911 -0.420075 48.383841 -3.156112 52.741232 0.592425 82.945619 -0.587658 0.000002 0.000000 0.000000 10.613650 1.964536 11.048983 32.252628 0.270539 -0.727585 25.555795 14.332758 -22.976186 53.171397 13.628749 5.304755 0.000002 -0.000000 0.000000 -61.064835 -4.912992 -11.271416 81.654051 10.747485 3.087229 -44.879442 -29.847076 -3.602552 -2.071030 7.404015 -6.522663 0.000000 -0.000000 -0.000000 
-48.810143 78.702187 -4.907636 43.901628 -63.401368 41.632366 5.404584 -2.619252 2.610164 10.907839 -6.084711 4.595393 10.907843 -6.084696 4.595390 -6.484151 -0.439394 -2.425187 -6.484152 -0.439390 -2.425194 0.000003 0.000000 0.000000 0.333887 0.252409 -1.816960 -84.386331 -52.335874 -96.658351 0.489747 -48.830573 0.368538 -0.000002 0.000001 0.000000 0.860184 9.432369 4.503035 40.391816 -3.917328 48.419675 0.532932 82.808216 -0.528453 -0.000003 -0.000000 0.000000 6.277685 5.407775 12.083172 41.449133 0.952844 -0.867513 23.064174 8.278695 -16.764214 47.758267 12.949955 14.464479 0.000002 0.000000 -0.000002 -56.628532 -8.033379 -10.435402 80.609100 9.878165 3.041673 -47.371033 -27.290933 -6.460339 -2.325445 9.315806 -7.360823 0.000000 0.000000 0.000000 
-52.229271 79.072304 -5.265373 44.092204 -66.269740 41.768369 5.953565 -2.379981 2.431022 11.990917 -5.488583 4.282989 11.990920 -5.488599 4.282999 -6.422842 -0.769026 -0.941515 -6.422837 -0.768989 -0.941530 0.000002 0.000000 -0.000000 0.409055 -0.776564 -1.898691 -73.996227 -54.236985 -91.145173 0.420586 -42.797118 0.285628 -0.000003 -0.000002 -0.000002 0.547683 11.103551 9.943254 32.127707 -2.851521 43.060880 0.326815 81.011221 -0.322570 0.000004 -0.000000 0.000000 2.076149 7.259369 13.030112 51.076315 1.257486 -1.025397 21.399814 7.207656 -13.196327 28.310536 4.216063 8.281090 -0.000002 -0.000000 0.000000 -51.453314 -10.316648 -8.958899 79.144680 8.663523 2.946325 -48.791665 -24.971701 -7.923861 -3.122760 10.464571 -6.220951 0.000000 0.000000 0.000000 
